<?xml version="1.0" encoding="utf-8"?>
<!-- Generator: Adobe Illustrator 20.1.0, SVG Export Plug-In . SVG Version: 6.00 Build 0)  -->
<svg version="1.1" id="Layer_1" xmlns="http://www.w3.org/2000/svg" xmlns:xlink="http://www.w3.org/1999/xlink" x="0px" y="0px"
	 viewBox="0 0 200 200" style="enable-background:new 0 0 200 200;" xml:space="preserve">
<style type="text/css">
	.st0{fill:#FFFFFF;}
	.st1{fill:#4A4A4A;}
</style>
<g>
	<path class="st0" d="M14,91.8c0,8.8,0.1,17.7,0,26.5c-0.1,5.7,2.2,10,7.1,12.8c22.1,12.7,44.2,25.4,66.3,38.1
		c4.7,2.7,9.5,2.7,14.3,0c22.1-12.7,44.2-25.3,66.3-38c4.7-2.7,7.1-6.8,7.1-12.3c0-18,0-36,0-54c0-5.5-2.4-9.6-7.1-12.3
		c-21.9-12.6-43.9-25.2-65.8-37.8c-5.1-2.9-10.1-2.9-15.1,0C65.1,27.2,43.4,39.7,21.5,52.2c-5.1,2.9-7.6,7.2-7.6,13.1
		C14.1,74.1,14,82.9,14,91.8 M14.3,139c-1.9,9.4,1.5,15.9,10.5,20.8c20.2,10.9,40,22.6,59.8,34.3c7,4.2,13,4,20-0.1
		c20-11.9,40.4-23.3,60.6-34.9c9.1-5.2,11.2-9.8,9.2-20.6c-2,1.5-3.9,3.1-6,4.3c-22,12.7-44.1,25.4-66.2,38.1
		c-5.3,3-10.3,2.9-15.5-0.1c-14.7-8.5-29.4-16.9-44.1-25.4C33.1,150,23.8,144.5,14.3,139"/>
	<path d="M14,91.8c0-8.8,0.1-17.7,0-26.5c-0.1-5.9,2.5-10.1,7.6-13.1c21.8-12.5,43.6-25,65.4-37.6c5.1-2.9,10-2.9,15.1,0
		c21.9,12.6,43.9,25.2,65.8,37.8c4.7,2.7,7.1,6.8,7.1,12.3c0,18,0,36,0,54c0,5.5-2.4,9.6-7.1,12.3c-22.1,12.7-44.2,25.3-66.3,38
		c-4.8,2.7-9.6,2.7-14.3,0c-22.1-12.6-44.2-25.4-66.3-38.1c-4.9-2.8-7.2-7.1-7.1-12.8C14.1,109.4,14,100.6,14,91.8 M114.8,49.3
		c1.4-1.9,3.2-3.4,2.9-4.3c-0.4-1.3-2.2-2.2-3.4-3.3c-1,1.2-2.6,2.3-2.7,3.5C111.6,46.2,113.3,47.4,114.8,49.3 M119,68.3
		c-1.8-1.5-2.9-3.2-4-3.2c-1.1,0-2.3,1.6-3.5,2.5c1,1.2,1.9,3.1,3.1,3.5C115.5,71.4,117,69.6,119,68.3 M78.6,67.8
		c-1.9-1.3-3.3-2.9-4.4-2.7c-1.2,0.2-2.1,1.9-3.2,3c1.2,1.1,2.3,2.8,3.6,3C75.6,71.3,76.9,69.3,78.6,67.8 M98.8,148.6
		c-1.9-1.4-3.2-3-4.4-2.9c-1.2,0.1-2.2,1.9-3.3,2.9c1.2,1.1,2.2,2.8,3.6,3.1C95.7,152,97,150.1,98.8,148.6 M94.5,121.4
		c-1.4,1.9-3.1,3.1-3,4.2c0.1,1.1,1.8,2.2,2.8,3.3c1.2-1.1,2.9-2.1,3.2-3.4C97.8,124.6,95.9,123.3,94.5,121.4 M98.9,103
		c-1.8-1.5-3.1-3.4-4.1-3.2c-1.3,0.2-2.4,2-3.6,3.1c1.1,1,2.1,2.8,3.2,2.9C95.6,105.9,96.9,104.3,98.9,103 M58.5,102.8
		c-1.9-1.5-3.3-3.3-4.1-3c-1.3,0.3-2.3,2.1-3.4,3.2c1.1,1,2.1,2.7,3.3,2.8C55.4,105.9,56.6,104.2,58.5,102.8 M78.7,45.2
		c-1.8-1.6-3.1-3.5-4-3.3c-1.3,0.2-2.4,1.9-3.6,3c1,1.1,2,2.8,3.2,3C75.4,48.1,76.7,46.5,78.7,45.2 M34,72.5c1.5-2.1,3.1-3.3,3-4.5
		c-0.1-1.2-1.9-2.2-2.9-3.3c-1.1,1.1-2.8,2.1-3,3.3C31,69.1,32.6,70.4,34,72.5 M159.3,68.7c-1.7-1.8-2.7-3.6-3.8-3.7
		c-1.1-0.1-3.2,1.5-3.3,2.5c-0.1,1.1,1.3,3.1,2.4,3.4C155.6,71.3,157.1,69.8,159.3,68.7 M119.2,137.2c-2.1-1.4-3.5-2.9-4.6-2.7
		c-1.2,0.2-2.1,1.9-3.2,3c1.1,1,2.2,2.7,3.3,2.8C115.9,140.3,117.1,138.7,119.2,137.2 M78.7,137.1c-2-1.4-3.2-2.9-4.4-2.8
		c-1.2,0.1-2.2,1.8-3.3,2.8c1.2,1.1,2.2,2.8,3.5,3.1C75.5,140.4,76.8,138.6,78.7,137.1 M38.4,91.4c-2-1.5-3.2-3.2-4.2-3.1
		c-1.1,0.1-3,1.8-3,2.8c0,1.1,1.6,2.9,2.8,3.1C35,94.4,36.3,92.8,38.4,91.4 M74.5,95.6c1.3-2.1,2.9-3.4,2.8-4.5
		c-0.2-1.1-2.1-2.9-3.1-2.8c-1.1,0.1-2.8,1.9-2.9,3.1C71.3,92.5,73,93.7,74.5,95.6 M114.9,95.5c1.3-2,3.1-3.5,2.8-4.3
		c-0.4-1.3-2.2-2.1-3.5-3.1c-0.9,1.1-2.6,2.3-2.6,3.4C111.7,92.6,113.4,93.7,114.9,95.5 M159.4,91.1c-2-1.4-3.4-3-4.4-2.8
		c-1.1,0.2-2.9,2-2.8,3c0,1.1,1.9,2.8,3,2.9C156.2,94.3,157.4,92.6,159.4,91.1 M94.3,60.8c1.6-1.9,3.3-3.1,3.3-4.2
		c0-1.1-1.8-3-2.9-3c-1.1,0-3,1.6-3.2,2.7C91.3,57.4,92.9,58.8,94.3,60.8 M78.8,114.2c-2.2-1.4-3.5-2.9-4.6-2.7
		c-1.2,0.2-2.1,1.9-3.1,3c1.1,1,2.2,2.7,3.3,2.8C75.6,117.4,76.8,115.7,78.8,114.2 M114.7,109.9c-1.5,1.9-3.3,3.2-3.1,4.1
		c0.3,1.3,2.1,2.3,3.2,3.4c1-1.1,2.7-2.1,2.8-3.3C117.8,113,116.2,111.8,114.7,109.9 M134.7,130.3c1.5-2,3.1-3.3,3.1-4.4
		c-0.1-1.2-1.9-2.2-2.9-3.3c-1.1,1.1-2.8,2-3,3.2C131.8,127,133.4,128.3,134.7,130.3 M139.3,102.7c-2.1-1.4-3.4-3-4.5-2.9
		c-1.1,0.1-2.1,1.9-3.1,3c1.1,1,2,2.7,3.2,2.8C136,105.7,137.3,104.1,139.3,102.7 M90,79.7c2.1,1.4,3.4,3,4.5,2.9
		c1.2-0.1,2.2-1.9,3.2-2.9c-1.1-1.1-2.1-2.8-3.3-2.9C93.4,76.6,92.1,78.2,90,79.7 M34.3,110c-1.6,2-3.3,3.1-3.2,4.2
		c0,1.1,1.6,3,2.6,3.1c1.1,0.1,2.9-1.5,3.1-2.6C37.1,113.5,35.6,112.2,34.3,110 M155.3,110c-1.6,2-3.3,3.1-3.2,4.2
		c0,1.1,1.6,3,2.7,3.1c1,0.1,2.9-1.5,3.1-2.7C158.1,113.6,156.6,112.2,155.3,110 M58.5,126.1c-1.9-1.5-3.2-3.2-4.2-3.1
		c-1.2,0.1-3,1.8-3.1,2.9c-0.1,1.1,1.7,2.9,2.9,3.1C55.2,129.1,56.5,127.5,58.5,126.1 M53.8,52.1c-1.3,2.1-2.8,3.5-2.6,4.6
		c0.2,1.1,2.1,2.8,3.1,2.7c1.1-0.1,2.7-1.9,2.7-3.1C57.1,55.2,55.4,54,53.8,52.1 M139.3,56.4c-2.1-1.4-3.4-3-4.5-2.8
		c-1.1,0.1-2.1,1.9-3.1,2.9c1.1,1,2.1,2.7,3.2,2.8C136,59.4,137.2,57.9,139.3,56.4 M139.3,79.7c-2.1-1.5-3.3-3.1-4.4-3
		c-1.1,0.1-2.2,1.8-3.2,2.8c1,1.1,2,2.8,3.1,3C135.9,82.6,137.2,81.1,139.3,79.7 M54.3,84c1.3-2.1,2.9-3.4,2.7-4.5
		c-0.2-1.1-2-2.8-3-2.8c-1.1,0.1-2.8,1.9-2.8,3C51.1,80.8,52.8,82,54.3,84 M94.7,29.1c-1.6,1.9-3.3,3.1-3.2,4.2c0.1,1.2,1.9,3,2.9,3
		c1.1,0,2.9-1.7,3.1-2.8C97.7,32.4,96.1,31.1,94.7,29.1"/>
	<path d="M14.3,139c9.5,5.5,18.8,11,28.1,16.4c14.7,8.5,29.5,16.8,44.1,25.4c5.3,3.1,10.3,3.2,15.5,0.1
		c22.1-12.7,44.2-25.4,66.2-38.1c2.1-1.2,4-2.8,6-4.3c2,10.8,0,15.3-9.2,20.6c-20.2,11.6-40.5,23-60.6,34.9c-7,4.1-13,4.3-20,0.1
		c-19.8-11.7-39.6-23.3-59.8-34.3C15.9,154.9,12.4,148.4,14.3,139z"/>
	<path class="st0" d="M114.8,49.3c-1.5-1.8-3.1-3-3.1-4.1c0-1.2,1.7-2.3,2.7-3.5c1.2,1.1,3,2,3.4,3.3
		C118,45.9,116.2,47.3,114.8,49.3z"/>
	<path class="st0" d="M115,65.1C115,65.1,115,65.1,115,65.1c-1,0-2,1.2-2.9,2.1c0,0,0,0,0,0c0,0,0,0,0,0c-0.1,0.1-0.3,0.2-0.4,0.4
		c0,0,0,0,0,0c0,0,0,0,0,0l0,0c0,0,0,0,0,0c0,0,0,0,0,0c0,0,0,0,0,0c0,0,0,0,0,0l0,0c1,1.2,1.9,3.1,3.1,3.5l0,0c0,0,0,0,0,0
		c0,0,0,0,0,0c0.1,0,0.1,0,0.2,0c0,0,0,0,0,0c0,0,0,0,0,0c0,0,0,0,0,0c0,0,0,0,0,0c0.1,0,0.2,0,0.3-0.1c0,0,0,0,0,0c0,0,0,0,0,0
		c0,0,0,0,0,0c0,0,0,0,0,0c0,0,0,0,0,0c0,0,0,0,0,0c0,0,0,0,0,0c0,0,0,0,0,0c0,0,0,0,0,0c0,0,0,0,0,0c0,0,0,0,0,0c0,0,0,0,0,0
		c0.9-0.4,2.1-1.6,3.6-2.6c0,0,0,0,0,0c0,0,0,0,0.1,0c0,0,0,0,0,0c0,0,0,0,0,0l0,0C117.2,66.8,116.1,65.1,115,65.1L115,65.1
		C115,65.1,115,65.1,115,65.1C115,65.1,115,65.1,115,65.1C115,65.1,115,65.1,115,65.1C115,65.1,115,65.1,115,65.1
		C115,65.1,115,65.1,115,65.1C115,65.1,115,65.1,115,65.1C115,65.1,115,65.1,115,65.1"/>
	<path class="st1" d="M114.9,71.1C114.9,71.1,114.9,71.1,114.9,71.1L114.9,71.1C114.9,71.1,114.9,71.1,114.9,71.1 M115,71.1
		C114.9,71.1,114.9,71.1,115,71.1C114.9,71.1,114.9,71.1,115,71.1 M114.6,71.1c0.1,0,0.1,0,0.2,0C114.8,71.1,114.7,71.1,114.6,71.1
		 M114.6,71.1C114.6,71.1,114.6,71.1,114.6,71.1C114.6,71.1,114.6,71.1,114.6,71.1 M115.3,71C115.3,71,115.3,71,115.3,71
		C115.3,71,115.3,71,115.3,71 M115.3,71C115.3,71,115.3,71,115.3,71C115.3,71,115.3,71,115.3,71 M115.3,71
		C115.3,71,115.3,71,115.3,71C115.3,71,115.3,71,115.3,71 M115.3,71C115.3,71,115.3,71,115.3,71C115.3,71,115.3,71,115.3,71
		 M115.3,71C115.3,71,115.3,71,115.3,71C115.3,71,115.3,71,115.3,71 M115.4,71C115.3,71,115.3,71,115.4,71
		C115.3,71,115.3,71,115.4,71 M118.9,68.4c-1.5,1-2.7,2.2-3.6,2.6C116.2,70.6,117.4,69.4,118.9,68.4 M119,68.3
		C119,68.3,118.9,68.3,119,68.3C118.9,68.3,119,68.3,119,68.3 M119,68.3C119,68.3,119,68.3,119,68.3C119,68.3,119,68.3,119,68.3
		 M111.5,67.6L111.5,67.6L111.5,67.6L111.5,67.6 M111.5,67.6C111.5,67.6,111.5,67.6,111.5,67.6C111.5,67.6,111.5,67.6,111.5,67.6
		 M111.5,67.6C111.5,67.6,111.5,67.6,111.5,67.6C111.5,67.6,111.5,67.6,111.5,67.6 M111.6,67.5C111.6,67.5,111.6,67.5,111.6,67.5
		C111.6,67.5,111.6,67.5,111.6,67.5 M112,67.2c-0.1,0.1-0.3,0.2-0.4,0.4C111.7,67.4,111.9,67.3,112,67.2 M112,67.1
		C112,67.1,112,67.2,112,67.1C112,67.2,112,67.1,112,67.1 M115,65.1L115,65.1c1.1,0,2.3,1.7,4,3.2l0,0
		C117.2,66.8,116.1,65.1,115,65.1L115,65.1 M115,65.1C115,65.1,115,65.1,115,65.1C115,65.1,115,65.1,115,65.1 M115,65.1
		C115,65.1,115,65.1,115,65.1C115,65.1,115,65.1,115,65.1 M115,65.1C115,65.1,115,65.1,115,65.1C115,65.1,115,65.1,115,65.1
		 M115,65.1C115,65.1,115,65.1,115,65.1C115,65.1,115,65.1,115,65.1L115,65.1"/>
	<path class="st0" d="M74.4,65L74.4,65c0,0-0.1,0-0.1,0l0,0c-1.2,0.2-2.1,1.9-3.2,3c1.2,1.1,2.3,2.8,3.6,3l0,0c0,0,0.1,0,0.1,0
		c0,0,0,0,0,0c0,0,0,0,0.1,0c0.3,0,0.7-0.3,1.2-0.8c0.7-0.6,1.5-1.6,2.4-2.4c0,0,0,0,0,0c0,0,0,0,0.1,0c0,0,0,0,0.1-0.1l0,0
		c0,0,0,0,0,0c0,0,0,0,0,0c0,0-0.1-0.1-0.1-0.1c0,0,0,0,0,0c-0.6-0.4-1.1-0.8-1.5-1.2C75.9,65.7,75.1,65,74.4,65
		C74.4,65,74.4,65,74.4,65"/>
	<path class="st1" d="M74.9,71.1C74.9,71.1,74.8,71.1,74.9,71.1L74.9,71.1C74.8,71.1,74.9,71.1,74.9,71.1 M74.7,71.1
		c0,0,0.1,0,0.1,0C74.8,71.1,74.8,71.1,74.7,71.1 M78.5,67.9c-0.9,0.9-1.7,1.8-2.4,2.4C76.8,69.7,77.6,68.7,78.5,67.9 M78.6,67.8
		C78.6,67.8,78.5,67.9,78.6,67.8C78.5,67.9,78.6,67.8,78.6,67.8 M78.6,67.8L78.6,67.8L78.6,67.8L78.6,67.8 M78.6,67.7
		C78.6,67.7,78.6,67.7,78.6,67.7C78.6,67.7,78.6,67.7,78.6,67.7 M78.4,67.6C78.5,67.6,78.5,67.6,78.4,67.6
		C78.5,67.6,78.5,67.6,78.4,67.6 M74.3,65L74.3,65c-1.2,0.2-2.1,1.9-3.2,3l0,0C72.1,67,73.1,65.2,74.3,65L74.3,65 M74.4,65
		c0.7,0,1.5,0.7,2.5,1.5C75.9,65.7,75.1,65,74.4,65 M74.4,65L74.4,65L74.4,65L74.4,65"/>
	<path class="st0" d="M98.8,148.6c-1.8,1.5-3.1,3.4-4,3.2c-1.3-0.3-2.4-2-3.6-3.1c1.1-1.1,2.1-2.8,3.3-2.9
		C95.6,145.7,96.9,147.3,98.8,148.6z"/>
	<path class="st0" d="M94.5,121.4c1.4,1.8,3.3,3.2,3.1,4.1c-0.3,1.3-2.1,2.3-3.2,3.4c-1-1.1-2.8-2.1-2.8-3.3
		C91.4,124.5,93.1,123.3,94.5,121.4z"/>
	<path class="st0" d="M94.9,99.8C94.9,99.8,94.9,99.8,94.9,99.8c0,0-0.1,0-0.1,0l0,0c-1.3,0.2-2.4,2-3.6,3.1c1.1,1,2.1,2.8,3.2,2.9
		l0,0c0,0,0.1,0,0.1,0c0,0,0,0,0,0c0,0,0,0,0,0c0.8,0,1.7-0.8,2.9-1.7c0.4-0.3,0.7-0.6,1.2-0.9c0,0,0,0,0,0c0,0,0.1-0.1,0.1-0.1
		c0,0,0.1-0.1,0.1-0.1l0,0c0,0,0,0,0,0c0,0,0,0,0,0c-0.9-0.7-1.6-1.5-2.2-2.1C96,100.2,95.4,99.8,94.9,99.8
		C94.9,99.8,94.9,99.8,94.9,99.8"/>
	<path class="st1" d="M94.6,105.8C94.6,105.8,94.6,105.8,94.6,105.8L94.6,105.8C94.6,105.8,94.6,105.8,94.6,105.8 M94.5,105.8
		c0,0,0.1,0,0.1,0C94.6,105.8,94.5,105.8,94.5,105.8 M98.6,103.2c-0.4,0.3-0.8,0.6-1.2,0.9C97.8,103.8,98.2,103.5,98.6,103.2
		 M98.8,103.1c0,0-0.1,0.1-0.1,0.1C98.7,103.1,98.7,103.1,98.8,103.1 M98.9,103C98.9,103,98.9,103,98.9,103
		C98.9,103,98.9,103,98.9,103 M94.8,99.8L94.8,99.8c-1.3,0.2-2.4,2-3.6,3.1l0,0C92.4,101.8,93.5,100.1,94.8,99.8L94.8,99.8
		 M94.9,99.8c0.5,0,1,0.4,1.7,1.1C96,100.2,95.4,99.8,94.9,99.8 M94.9,99.8C94.9,99.8,94.9,99.8,94.9,99.8
		C94.9,99.8,94.9,99.8,94.9,99.8L94.9,99.8"/>
	<path class="st0" d="M54.5,99.8C54.5,99.8,54.5,99.8,54.5,99.8c-0.1,0-0.1,0-0.2,0l0,0c-1.3,0.3-2.3,2.1-3.4,3.2
		c1.1,1,2.1,2.7,3.3,2.8c0,0,0,0,0,0c0,0,0,0,0.1,0h0c0,0,0,0,0,0c0.8,0,1.7-0.9,2.9-2c0,0,0,0,0,0c0,0,0,0,0,0c0,0,0,0,0,0
		c0,0,0,0,0,0c0.3-0.3,0.7-0.6,1.1-0.9c0,0,0,0,0,0c0,0,0,0,0,0l0,0l0,0c-0.1-0.1-0.1-0.1-0.2-0.2c0,0,0,0,0,0
		c-1.1-0.9-2.1-1.9-2.9-2.5C55.1,99.9,54.8,99.8,54.5,99.8C54.5,99.8,54.5,99.8,54.5,99.8"/>
	<path class="st1" d="M54.4,105.8C54.4,105.8,54.4,105.8,54.4,105.8L54.4,105.8C54.4,105.8,54.4,105.8,54.4,105.8 M54.3,105.8
		C54.3,105.8,54.3,105.8,54.3,105.8C54.3,105.8,54.3,105.8,54.3,105.8 M57.3,103.8C57.3,103.8,57.3,103.8,57.3,103.8
		C57.3,103.8,57.3,103.8,57.3,103.8 M57.3,103.8C57.3,103.8,57.3,103.8,57.3,103.8C57.3,103.8,57.3,103.8,57.3,103.8 M58.4,102.9
		c-0.4,0.3-0.8,0.6-1.1,0.9C57.7,103.5,58,103.2,58.4,102.9 M58.5,102.8C58.5,102.8,58.5,102.8,58.5,102.8
		C58.5,102.8,58.5,102.8,58.5,102.8 M58.3,102.7C58.3,102.7,58.3,102.7,58.3,102.7C58.3,102.7,58.3,102.7,58.3,102.7 M54.4,99.8
		L54.4,99.8c-1.3,0.3-2.3,2.1-3.4,3.2l0,0C52.1,101.9,53,100.1,54.4,99.8L54.4,99.8 M54.5,99.8c0.3,0,0.6,0.2,0.9,0.4
		C55.1,99.9,54.8,99.8,54.5,99.8 M54.5,99.8C54.5,99.8,54.5,99.8,54.5,99.8C54.5,99.8,54.5,99.8,54.5,99.8L54.5,99.8"/>
	<path class="st0" d="M78.7,45.2c-2,1.3-3.3,2.9-4.4,2.7c-1.2-0.2-2.1-1.9-3.2-3c1.2-1.1,2.3-2.8,3.6-3
		C75.6,41.8,76.9,43.6,78.7,45.2z"/>
	<path class="st0" d="M155.4,65C155.4,65,155.4,65,155.4,65C155.3,65,155.3,65,155.4,65c-0.1,0-0.1,0-0.2,0c-0.1,0-0.1,0-0.2,0
		c0,0,0,0,0,0c0,0,0,0,0,0c0,0,0,0,0,0c0,0,0,0-0.1,0c0,0,0,0,0,0c0,0,0,0,0,0c0,0,0,0,0,0c0,0,0,0,0,0c0,0,0,0,0,0
		c-1.1,0.3-2.6,1.5-2.8,2.4c0,0,0,0,0,0c0,0,0,0,0,0c0,0,0,0,0,0c0,0,0,0,0,0l0,0c0,0.1,0,0.1,0,0.2c0,1.1,1.4,3,2.4,3.3
		c0,0,0,0,0,0c0.1,0,0.2,0,0.3,0c0,0,0,0,0,0c0,0,0,0,0,0c0.4,0,1-0.3,1.6-0.6c0.7-0.4,1.6-1,2.6-1.6l0,0c0,0,0,0,0,0c0,0,0,0,0,0
		c0.1,0,0.1-0.1,0.2-0.1c0,0,0,0,0,0C157.5,66.9,156.6,65.1,155.4,65C155.4,65,155.4,65,155.4,65L155.4,65"/>
	<path class="st1" d="M154.9,71C154.9,71,154.9,71,154.9,71L154.9,71C154.9,71,154.9,71,154.9,71 M154.6,71c0.1,0,0.2,0,0.3,0
		C154.8,71,154.7,71,154.6,71 M159,68.8c-1,0.6-1.9,1.1-2.6,1.6C157.2,70,158,69.4,159,68.8 M159,68.8C159,68.8,159,68.8,159,68.8
		C159,68.8,159,68.8,159,68.8 M159.3,68.7c-0.1,0-0.1,0.1-0.2,0.1C159.1,68.8,159.2,68.7,159.3,68.7 M152.1,67.6L152.1,67.6
		c0,0.1,0,0.1,0,0.2C152.1,67.7,152.1,67.6,152.1,67.6L152.1,67.6 M152.1,67.6C152.1,67.6,152.1,67.6,152.1,67.6
		C152.1,67.6,152.1,67.6,152.1,67.6 M152.1,67.5C152.1,67.5,152.1,67.5,152.1,67.5C152.1,67.5,152.1,67.5,152.1,67.5 M154.9,65.1
		C154.9,65.1,154.9,65.1,154.9,65.1C154.9,65.1,154.9,65.1,154.9,65.1 M154.9,65.1C154.9,65.1,154.9,65.1,154.9,65.1
		C154.9,65.1,154.9,65.1,154.9,65.1 M154.9,65.1C154.9,65.1,154.9,65.1,154.9,65.1C154.9,65.1,154.9,65.1,154.9,65.1 M155,65.1
		C155,65.1,155,65.1,155,65.1C155,65.1,155,65.1,155,65.1 M155.1,65.1C155.1,65.1,155.1,65.1,155.1,65.1
		C155.1,65.1,155.1,65.1,155.1,65.1 M155.3,65C155.3,65,155.3,65,155.3,65C155.3,65,155.3,65,155.3,65 M155.4,65
		C155.4,65,155.4,65,155.4,65c1.2,0.1,2.2,1.9,3.9,3.7l0,0C157.5,66.9,156.6,65.1,155.4,65C155.4,65,155.4,65,155.4,65 M155.4,65
		C155.4,65,155.4,65,155.4,65C155.4,65,155.4,65,155.4,65L155.4,65"/>
	<path class="st0" d="M119.2,137.2c-2.1,1.5-3.3,3.1-4.4,3.1c-1.2-0.1-2.2-1.8-3.3-2.8c1-1.1,2-2.8,3.2-3
		C115.7,134.3,117.1,135.8,119.2,137.2z"/>
	<path class="st0" d="M78.7,137.1c-1.9,1.5-3.2,3.3-4.1,3.1c-1.3-0.3-2.4-2-3.5-3.1c1.1-1,2.1-2.7,3.3-2.8
		C75.5,134.2,76.7,135.7,78.7,137.1z"/>
	<path class="st0" d="M34.2,88.3L34.2,88.3C34.2,88.3,34.2,88.3,34.2,88.3L34.2,88.3c-1.2,0.1-3.1,1.8-3.1,2.8c0,0,0,0,0,0
		c0,1.1,1.7,2.9,2.8,3.1l0,0c0.1,0,0.1,0,0.2,0c0,0,0,0,0,0c0,0,0,0,0,0c0.6,0,1.4-0.6,2.3-1.3c0,0,0,0,0,0c0,0,0,0,0,0c0,0,0,0,0,0
		c0,0,0,0,0,0c0.5-0.4,1.1-0.9,1.8-1.4c0,0,0,0,0,0c0,0,0.1-0.1,0.1-0.1c0,0,0,0,0,0c0,0,0,0,0,0c0,0,0,0,0,0c0,0,0,0,0,0l0,0
		c0,0,0,0-0.1-0.1c0,0,0,0,0,0c0,0,0,0,0,0c0,0,0,0,0,0c0,0,0,0-0.1-0.1c0,0,0,0,0,0c0,0,0,0,0,0c0,0,0,0,0,0c0,0,0,0,0,0
		c-0.4-0.3-0.8-0.7-1.2-1C35.8,89.1,35,88.3,34.2,88.3C34.2,88.3,34.2,88.3,34.2,88.3"/>
	<path class="st1" d="M34.1,94.2C34.1,94.2,34.1,94.2,34.1,94.2L34.1,94.2C34.1,94.2,34.1,94.2,34.1,94.2 M33.9,94.2
		c0.1,0,0.1,0,0.2,0C34,94.2,34,94.2,33.9,94.2 M36.4,92.9C36.4,92.9,36.4,92.9,36.4,92.9C36.4,92.9,36.4,92.9,36.4,92.9 M36.4,92.9
		C36.4,92.9,36.4,92.9,36.4,92.9C36.4,92.9,36.4,92.9,36.4,92.9 M38.2,91.5c-0.7,0.5-1.3,1-1.8,1.4C36.9,92.5,37.5,92,38.2,91.5
		 M38.3,91.4c0,0-0.1,0.1-0.1,0.1C38.3,91.5,38.3,91.4,38.3,91.4 M38.4,91.4C38.3,91.4,38.3,91.4,38.4,91.4
		C38.3,91.4,38.3,91.4,38.4,91.4 M38.4,91.4C38.4,91.4,38.4,91.4,38.4,91.4C38.4,91.4,38.4,91.4,38.4,91.4 M38.3,91.3
		C38.3,91.3,38.4,91.4,38.3,91.3L38.3,91.3C38.4,91.4,38.3,91.3,38.3,91.3 M38.3,91.3C38.3,91.3,38.3,91.3,38.3,91.3
		C38.3,91.3,38.3,91.3,38.3,91.3 M38.2,91.2C38.2,91.2,38.2,91.3,38.2,91.2C38.2,91.3,38.2,91.2,38.2,91.2 M38.2,91.2
		C38.2,91.2,38.2,91.2,38.2,91.2C38.2,91.2,38.2,91.2,38.2,91.2 M38.1,91.2C38.1,91.2,38.1,91.2,38.1,91.2
		C38.1,91.2,38.1,91.2,38.1,91.2 M34.2,88.3L34.2,88.3c-1.1,0.1-3,1.8-3,2.8c0,0,0,0,0,0c0,0,0,0,0,0C31.2,90.1,33,88.4,34.2,88.3
		L34.2,88.3 M34.2,88.3c0.8,0,1.6,0.8,2.7,1.9C35.8,89.1,35,88.3,34.2,88.3 M34.2,88.3L34.2,88.3L34.2,88.3L34.2,88.3"/>
	<path class="st0" d="M74.2,88.3L74.2,88.3C74.2,88.3,74.2,88.3,74.2,88.3L74.2,88.3c-1.1,0.1-2.9,1.9-2.9,3.1c0,0,0,0,0,0
		c0,1.1,1.7,2.3,3.2,4.2c1.3-2,2.8-3.3,2.8-4.4c0-0.1,0-0.1,0-0.2c0,0,0,0,0,0c0,0,0,0,0,0c-0.2-0.9-1.5-2.3-2.5-2.7c0,0,0,0,0,0
		c0,0,0,0,0,0c0,0,0,0,0,0c0,0,0,0,0,0c0,0,0,0,0,0c0,0,0,0,0,0c-0.1,0-0.2-0.1-0.3-0.1C74.3,88.3,74.3,88.3,74.2,88.3
		C74.2,88.3,74.2,88.3,74.2,88.3"/>
	<path class="st1" d="M77.3,91.1C77.3,91.1,77.3,91.1,77.3,91.1c0,0.1,0,0.1,0,0.2C77.3,91.2,77.3,91.2,77.3,91.1
		C77.3,91.1,77.3,91.1,77.3,91.1 M74.8,88.4c1,0.4,2.3,1.7,2.5,2.7C77.1,90.1,75.8,88.8,74.8,88.4 M74.7,88.4
		C74.7,88.4,74.8,88.4,74.7,88.4C74.8,88.4,74.7,88.4,74.7,88.4 M74.7,88.4C74.7,88.4,74.7,88.4,74.7,88.4
		C74.7,88.4,74.7,88.4,74.7,88.4 M74.7,88.4C74.7,88.4,74.7,88.4,74.7,88.4C74.7,88.4,74.7,88.4,74.7,88.4 M74.2,88.3L74.2,88.3
		c-1.1,0.1-2.8,1.9-2.9,3.1c0,0,0,0,0,0c0,0,0,0,0,0C71.4,90.2,73.1,88.3,74.2,88.3L74.2,88.3 M74.2,88.3c0,0,0.1,0,0.1,0
		C74.3,88.3,74.3,88.3,74.2,88.3 M74.2,88.3L74.2,88.3L74.2,88.3L74.2,88.3"/>
	<path class="st0" d="M114.2,88.1c-0.9,1.1-2.6,2.3-2.6,3.4c0,0,0,0,0,0c0,1.1,1.7,2.2,3.2,4c1.2-1.8,2.8-3.2,2.8-4.1
		c0-0.1,0-0.1,0-0.2C117.3,89.9,115.5,89.1,114.2,88.1"/>
	<path class="st0" d="M155.1,88.2C155.1,88.2,155.1,88.2,155.1,88.2c0,0-0.1,0-0.1,0l0,0c-1.1,0.2-2.8,2-2.8,3c0,0,0,0,0,0
		c0,1.1,1.9,2.8,3,2.9l0,0c0,0,0.1,0,0.1,0h0c0,0,0,0,0,0c0.8,0,1.7-0.9,2.8-2c0,0,0,0,0.1-0.1c0,0,0,0,0,0c0.3-0.3,0.7-0.6,1.1-0.9
		c0,0,0,0,0,0c0,0,0,0,0,0c0,0,0.1-0.1,0.1-0.1c0,0,0,0,0.1,0l0,0l0,0c0,0,0,0,0,0c0,0,0,0,0,0c0,0,0,0,0,0c0,0,0,0,0,0
		c-0.6-0.4-1.1-0.9-1.6-1.3C156.6,88.9,155.8,88.2,155.1,88.2C155.1,88.2,155.1,88.2,155.1,88.2"/>
	<path class="st1" d="M155.2,94.2C155.2,94.2,155.2,94.2,155.2,94.2L155.2,94.2C155.2,94.2,155.2,94.2,155.2,94.2 M155.1,94.2
		C155.1,94.2,155.1,94.2,155.1,94.2C155.1,94.2,155.1,94.2,155.1,94.2 M158.1,92.1C158.1,92.2,158,92.2,158.1,92.1
		C158,92.2,158.1,92.2,158.1,92.1 M159.2,91.2c-0.4,0.3-0.7,0.6-1.1,0.9C158.4,91.8,158.8,91.5,159.2,91.2 M159.2,91.2
		C159.2,91.2,159.2,91.2,159.2,91.2C159.2,91.2,159.2,91.2,159.2,91.2 M159.4,91.1C159.3,91.1,159.3,91.1,159.4,91.1
		C159.3,91.1,159.3,91.1,159.4,91.1 M159.4,91.1L159.4,91.1L159.4,91.1L159.4,91.1 M159.3,91C159.3,91,159.3,91,159.3,91
		C159.3,91,159.3,91,159.3,91 M159.2,91C159.2,91,159.3,91,159.2,91C159.3,91,159.2,91,159.2,91 M154.9,88.2L154.9,88.2
		c-1.1,0.2-2.8,2-2.8,3C152.1,90.2,153.8,88.4,154.9,88.2L154.9,88.2 M155.1,88.2c0.7,0,1.5,0.7,2.5,1.5
		C156.6,88.9,155.8,88.2,155.1,88.2 M155.1,88.2C155.1,88.2,155.1,88.2,155.1,88.2C155.1,88.2,155.1,88.2,155.1,88.2L155.1,88.2"/>
	<path class="st0" d="M94.3,60.8c-1.4-2-3-3.4-2.8-4.4c0.2-1.1,2.1-2.8,3.2-2.7c1.1,0,2.8,1.9,2.9,3C97.6,57.7,95.8,58.9,94.3,60.8z
		"/>
	<path class="st0" d="M74.4,111.5C74.4,111.5,74.4,111.5,74.4,111.5c-0.1,0-0.1,0-0.2,0c0,0,0,0,0,0c-1.2,0.2-2.1,1.9-3.1,3
		c1.1,1,2.2,2.7,3.3,2.8l0,0c0,0,0.1,0,0.1,0h0c0,0,0,0,0,0c0.8,0,1.6-0.8,2.8-1.9c0.4-0.4,0.9-0.8,1.4-1.2c0,0,0,0,0,0c0,0,0,0,0,0
		c0,0,0,0,0,0l0,0c0,0,0,0,0,0c0,0,0,0,0,0c0,0,0,0,0,0c0,0-0.1,0-0.1-0.1c0,0,0,0,0,0c0,0,0,0,0,0c-0.7-0.4-1.2-0.9-1.8-1.2
		C75.9,112.1,75.1,111.5,74.4,111.5C74.4,111.5,74.4,111.5,74.4,111.5"/>
	<path class="st1" d="M74.5,117.3C74.5,117.3,74.5,117.3,74.5,117.3L74.5,117.3C74.5,117.3,74.5,117.3,74.5,117.3 M74.5,117.3
		C74.5,117.3,74.5,117.3,74.5,117.3C74.5,117.3,74.5,117.3,74.5,117.3 M78.8,114.3c-0.5,0.4-1,0.8-1.4,1.2
		C77.8,115.1,78.2,114.7,78.8,114.3 M78.8,114.2C78.8,114.2,78.8,114.2,78.8,114.2C78.8,114.2,78.8,114.2,78.8,114.2 M78.8,114.2
		L78.8,114.2L78.8,114.2L78.8,114.2 M78.8,114.1C78.8,114.2,78.8,114.2,78.8,114.1C78.8,114.2,78.8,114.2,78.8,114.1 M78.6,114.1
		C78.7,114.1,78.7,114.1,78.6,114.1C78.7,114.1,78.7,114.1,78.6,114.1 M78.6,114.1C78.6,114.1,78.6,114.1,78.6,114.1
		C78.6,114.1,78.6,114.1,78.6,114.1 M74.2,111.5C74.2,111.5,74.2,111.5,74.2,111.5c-1.2,0.2-2.1,1.9-3.1,3l0,0
		C72.1,113.4,73.1,111.7,74.2,111.5C74.2,111.5,74.2,111.5,74.2,111.5 M74.4,111.5c0.7,0,1.5,0.6,2.5,1.3
		C75.9,112.1,75.1,111.5,74.4,111.5 M74.4,111.5C74.4,111.5,74.4,111.5,74.4,111.5C74.4,111.5,74.4,111.5,74.4,111.5L74.4,111.5"/>
	<path class="st0" d="M114.7,109.9c-1.4,1.8-3.1,3.1-3.1,4c0,0.1,0,0.1,0,0.1c0.3,1.3,2.1,2.3,3.2,3.4c1-1.1,2.7-2.1,2.8-3.3
		c0,0,0-0.1,0-0.1C117.7,113,116.1,111.8,114.7,109.9"/>
	<path class="st0" d="M134.7,130.3c-1.4-2.1-3-3.4-2.8-4.5c0.1-1.2,1.9-2.1,3-3.2c1,1.1,2.8,2.1,2.9,3.3
		C137.9,127.1,136.2,128.3,134.7,130.3z"/>
	<path class="st0" d="M134.9,99.7L134.9,99.7c0,0-0.1,0-0.1,0l0,0c-1.1,0.1-2.1,1.9-3.1,3c1.1,1,2,2.7,3.2,2.8l0,0c0,0,0.1,0,0.1,0
		c0,0,0,0,0,0c0,0,0,0,0,0c0.8,0,1.6-0.8,2.7-1.7c0.4-0.4,0.9-0.7,1.4-1.1c0,0,0,0,0,0c0,0,0,0,0.1,0c0,0,0,0,0,0c0,0,0,0,0,0
		c0,0,0,0,0,0c0,0,0,0,0,0c0,0,0,0,0,0c0,0,0,0,0,0c0,0,0,0,0,0c0,0-0.1,0-0.1-0.1c0,0,0,0,0,0c0,0,0,0,0,0c0,0,0,0,0,0c0,0,0,0,0,0
		c0,0,0,0,0,0c0,0,0,0-0.1,0c0,0,0,0,0,0c0,0,0,0,0,0c-0.5-0.3-0.9-0.7-1.3-1c0,0,0,0,0,0c0,0,0,0,0,0
		C136.5,100.5,135.7,99.7,134.9,99.7C134.9,99.7,134.9,99.7,134.9,99.7"/>
	<path class="st1" d="M135,105.6C135,105.6,135,105.6,135,105.6L135,105.6C135,105.6,135,105.6,135,105.6 M134.9,105.6
		c0,0,0.1,0,0.1,0C135,105.6,134.9,105.6,134.9,105.6 M139.2,102.8c-0.5,0.4-1,0.8-1.4,1.1C138.2,103.5,138.6,103.1,139.2,102.8
		 M139.2,102.7C139.2,102.7,139.2,102.7,139.2,102.7C139.2,102.7,139.2,102.7,139.2,102.7 M139.3,102.7
		C139.3,102.7,139.3,102.7,139.3,102.7C139.3,102.7,139.3,102.7,139.3,102.7 M139.3,102.7C139.3,102.7,139.3,102.7,139.3,102.7
		C139.3,102.7,139.3,102.7,139.3,102.7 M139.3,102.6C139.3,102.6,139.3,102.7,139.3,102.6L139.3,102.6
		C139.3,102.7,139.3,102.6,139.3,102.6 M139.2,102.6C139.2,102.6,139.2,102.6,139.2,102.6C139.2,102.6,139.2,102.6,139.2,102.6
		 M139.1,102.5C139.1,102.5,139.1,102.5,139.1,102.5C139.1,102.5,139.1,102.5,139.1,102.5 M139.1,102.5
		C139.1,102.5,139.1,102.5,139.1,102.5C139.1,102.5,139.1,102.5,139.1,102.5 M139,102.4C139,102.5,139,102.5,139,102.4
		C139,102.5,139,102.5,139,102.4 M139,102.4C139,102.4,139,102.4,139,102.4C139,102.4,139,102.4,139,102.4 M137.7,101.4
		C137.7,101.4,137.7,101.4,137.7,101.4C137.7,101.4,137.7,101.4,137.7,101.4 M134.8,99.7L134.8,99.7c-1.1,0.1-2.1,1.9-3.1,3l0,0
		C132.7,101.7,133.7,99.9,134.8,99.7L134.8,99.7 M134.9,99.7c0.8,0,1.6,0.7,2.7,1.7C136.5,100.5,135.7,99.7,134.9,99.7 M134.9,99.7
		L134.9,99.7L134.9,99.7L134.9,99.7"/>
	<path class="st0" d="M94.4,76.7C94.4,76.7,94.4,76.7,94.4,76.7c-0.8,0-1.6,0.8-2.8,1.8c-0.4,0.3-0.8,0.7-1.3,1c0,0,0,0,0,0
		c0,0-0.1,0.1-0.1,0.1c0,0,0,0,0,0c0,0-0.1,0-0.1,0.1c0,0,0,0,0,0c0,0,0,0,0,0c0,0,0,0,0,0c0,0,0,0,0,0c0,0,0,0,0,0l0,0l0,0
		c0,0,0,0,0,0c0,0,0,0,0,0c0,0,0,0,0,0c0,0,0,0,0.1,0c0,0,0,0,0,0c0,0,0,0,0,0c0,0,0,0,0,0c0.5,0.4,1,0.7,1.4,1.1
		c1.1,0.9,2,1.7,2.8,1.7c0,0,0,0,0,0c0,0,0,0,0,0c0,0,0.1,0,0.1,0c0,0,0,0,0,0c0,0,0,0,0,0c0,0,0,0,0,0l0,0c1.2-0.1,2.2-1.9,3.2-2.9
		c-1.1-1.1-2.1-2.8-3.3-2.9C94.4,76.7,94.4,76.7,94.4,76.7C94.4,76.7,94.4,76.7,94.4,76.7"/>
	<path class="st1" d="M94.4,82.5C94.4,82.5,94.4,82.5,94.4,82.5L94.4,82.5C94.4,82.5,94.4,82.5,94.4,82.5 M94.5,82.5
		C94.5,82.5,94.5,82.5,94.5,82.5C94.5,82.5,94.5,82.5,94.5,82.5 M94.5,82.5C94.5,82.5,94.5,82.5,94.5,82.5
		C94.5,82.5,94.5,82.5,94.5,82.5 M91.6,80.9c1.1,0.9,2,1.7,2.8,1.7C93.6,82.5,92.7,81.8,91.6,80.9 M90.2,79.8
		C90.2,79.8,90.2,79.8,90.2,79.8C90.2,79.8,90.2,79.8,90.2,79.8 M90.1,79.8C90.1,79.8,90.1,79.8,90.1,79.8
		C90.1,79.8,90.1,79.8,90.1,79.8 M90.1,79.7C90.1,79.7,90.1,79.7,90.1,79.7C90.1,79.7,90.1,79.7,90.1,79.7 M90,79.7
		C90,79.7,90,79.7,90,79.7C90,79.7,90,79.7,90,79.7 M90.1,79.6C90.1,79.6,90,79.6,90.1,79.6C90,79.6,90.1,79.6,90.1,79.6 M90.1,79.6
		C90.1,79.6,90.1,79.6,90.1,79.6C90.1,79.6,90.1,79.6,90.1,79.6 M90.2,79.5C90.1,79.6,90.1,79.6,90.2,79.5
		C90.1,79.6,90.1,79.6,90.2,79.5 M90.3,79.4c0,0-0.1,0.1-0.1,0.1C90.2,79.5,90.3,79.5,90.3,79.4 M91.6,78.4c-0.4,0.3-0.8,0.7-1.3,1
		C90.8,79.1,91.2,78.7,91.6,78.4 M94.4,76.7c0,0,0.1,0,0.1,0c1.2,0.1,2.2,1.9,3.3,2.9l0,0c-1.1-1.1-2.1-2.8-3.3-2.9
		C94.4,76.7,94.4,76.7,94.4,76.7 M94.4,76.7C94.4,76.7,94.4,76.7,94.4,76.7C94.4,76.7,94.4,76.7,94.4,76.7L94.4,76.7"/>
	<path class="st0" d="M34.3,110c-1.6,2-3.2,3.1-3.2,4.1c0,0,0,0,0,0c0,1.1,1.6,3,2.6,3.1l0,0c0,0,0,0,0.1,0h0c0,0,0,0,0,0
		c0,0,0,0,0.1,0c0,0,0.1,0,0.1,0c0,0,0,0,0,0c0,0,0.1,0,0.1,0c0,0,0,0,0,0h0c1.1-0.2,2.5-1.6,2.8-2.6c0,0,0,0,0,0c0,0,0,0,0,0
		c0-0.1,0-0.1,0-0.2C36.9,113.4,35.6,112,34.3,110"/>
	<path class="st1" d="M33.9,117.2C33.9,117.2,33.9,117.2,33.9,117.2L33.9,117.2C33.9,117.2,33.9,117.2,33.9,117.2 M33.8,117.2
		C33.8,117.2,33.8,117.2,33.8,117.2C33.8,117.2,33.8,117.2,33.8,117.2 M34,117.2C34,117.2,34,117.2,34,117.2
		C34,117.2,34,117.2,34,117.2 M34.1,117.2c0,0-0.1,0-0.1,0C34.1,117.2,34.1,117.2,34.1,117.2 M34.1,117.2L34.1,117.2L34.1,117.2
		 M36.9,114.6C36.9,114.6,36.9,114.6,36.9,114.6C36.9,114.6,36.9,114.6,36.9,114.6 M34.3,110c-1.6,2-3.2,3.1-3.2,4.1
		C31.1,113,32.8,111.9,34.3,110c1.2,2.1,2.6,3.4,2.6,4.4C36.9,113.4,35.6,112,34.3,110"/>
	<path class="st0" d="M155.3,110c-1.6,2-3.2,3.1-3.2,4.2c0,0,0,0,0,0c0,1.1,1.6,3,2.7,3.1l0,0c0,0,0.1,0,0.1,0h0c0,0,0,0,0,0
		c0,0,0,0,0,0c0.1,0,0.2,0,0.2,0c0,0,0,0,0,0c0,0,0,0,0,0c0,0,0,0,0,0c0,0,0,0,0,0c0,0,0,0,0,0c0,0,0,0,0,0l0,0c0,0,0,0,0,0
		c1-0.3,2.4-1.6,2.6-2.6c0,0,0,0,0,0l0,0c0-0.1,0-0.1,0-0.2C157.9,113.4,156.5,112,155.3,110"/>
	<path class="st1" d="M154.9,117.3C154.9,117.3,154.9,117.3,154.9,117.3L154.9,117.3C154.9,117.3,154.9,117.3,154.9,117.3
		 M154.8,117.3C154.8,117.3,154.8,117.3,154.8,117.3C154.8,117.3,154.8,117.3,154.8,117.3 M155.2,117.2c-0.1,0-0.2,0-0.2,0
		C155,117.3,155.1,117.3,155.2,117.2 M155.2,117.2C155.2,117.2,155.2,117.2,155.2,117.2C155.2,117.2,155.2,117.2,155.2,117.2
		 M155.2,117.2C155.2,117.2,155.2,117.2,155.2,117.2C155.2,117.2,155.2,117.2,155.2,117.2 M155.3,117.2
		C155.2,117.2,155.2,117.2,155.3,117.2C155.2,117.2,155.2,117.2,155.3,117.2 M155.3,117.2C155.3,117.2,155.3,117.2,155.3,117.2
		C155.3,117.2,155.3,117.2,155.3,117.2 M157.9,114.6C157.9,114.6,157.9,114.6,157.9,114.6C157.9,114.6,157.9,114.6,157.9,114.6
		 M155.3,110c-1.6,2-3.2,3.1-3.2,4.2C152.1,113.1,153.7,111.9,155.3,110c1.2,2.1,2.6,3.4,2.6,4.4C157.9,113.4,156.5,112,155.3,110"
		/>
	<path class="st0" d="M58.5,126.1c-2,1.4-3.4,3-4.5,2.9c-1.2-0.2-2.9-2-2.9-3.1c0.1-1.1,1.9-2.8,3.1-2.9
		C55.4,122.9,56.6,124.6,58.5,126.1z"/>
	<path class="st0" d="M53.8,52.1c1.6,1.9,3.3,3.1,3.2,4.2c0,1.1-1.7,3-2.7,3.1c-1,0.1-2.9-1.6-3.1-2.7C51,55.6,52.5,54.2,53.8,52.1z
		"/>
	<path class="st0" d="M139.3,56.4c-2.1,1.5-3.3,3-4.4,2.9c-1.1-0.1-2.1-1.8-3.2-2.8c1-1,2-2.8,3.1-2.9
		C135.9,53.4,137.2,55,139.3,56.4z"/>
	<path class="st0" d="M135,76.7C135,76.7,135,76.7,135,76.7C135,76.7,135,76.7,135,76.7C134.9,76.7,134.9,76.7,135,76.7
		c-1.2,0.1-2.3,1.8-3.3,2.8c1,1.1,2,2.8,3.1,3l0,0c0,0,0.1,0,0.1,0l0,0c0,0,0,0,0,0c0.7,0,1.5-0.6,2.5-1.4c0.5-0.4,1.1-0.9,1.8-1.3
		c0,0,0,0,0,0c0,0,0,0,0,0c0,0,0,0,0,0c0,0,0,0,0,0c0,0,0,0,0,0c0,0,0,0,0,0c0,0,0,0,0,0c0,0-0.1,0-0.1-0.1c0,0,0,0,0,0c0,0,0,0,0,0
		c0,0,0,0,0,0c0,0,0,0,0,0c0,0,0,0,0,0c0,0,0,0,0,0c0,0-0.1,0-0.1-0.1c0,0,0,0,0,0c-0.4-0.3-0.8-0.6-1.2-0.9
		C136.7,77.5,135.8,76.7,135,76.7C135,76.7,135,76.7,135,76.7"/>
	<path class="st1" d="M135,82.5C135,82.5,135,82.5,135,82.5L135,82.5C135,82.5,135,82.5,135,82.5 M134.8,82.5c0,0,0.1,0,0.1,0
		C134.9,82.5,134.9,82.5,134.8,82.5 M139.2,79.8c-0.7,0.4-1.3,0.9-1.8,1.3C137.9,80.7,138.5,80.2,139.2,79.8 M139.2,79.8
		C139.2,79.8,139.2,79.8,139.2,79.8C139.2,79.8,139.2,79.8,139.2,79.8 M139.3,79.7C139.3,79.7,139.3,79.7,139.3,79.7
		C139.3,79.7,139.3,79.7,139.3,79.7 M139.3,79.7C139.3,79.7,139.3,79.7,139.3,79.7L139.3,79.7C139.3,79.7,139.3,79.7,139.3,79.7
		 M139.2,79.6C139.2,79.6,139.3,79.6,139.2,79.6C139.3,79.6,139.2,79.6,139.2,79.6 M139.2,79.6C139.2,79.6,139.2,79.6,139.2,79.6
		C139.2,79.6,139.2,79.6,139.2,79.6 M139.1,79.5C139.1,79.5,139.1,79.5,139.1,79.5C139.1,79.5,139.1,79.5,139.1,79.5 M139.1,79.5
		C139.1,79.5,139.1,79.5,139.1,79.5C139.1,79.5,139.1,79.5,139.1,79.5 M139,79.4C139,79.4,139,79.4,139,79.4
		C139,79.4,139,79.4,139,79.4 M134.9,76.7C134.9,76.7,134.9,76.7,134.9,76.7c-1.2,0.1-2.2,1.8-3.2,2.8l0,0
		C132.8,78.5,133.8,76.8,134.9,76.7C134.9,76.7,134.9,76.7,134.9,76.7 M135,76.7c0.8,0,1.6,0.8,2.8,1.8
		C136.7,77.5,135.8,76.7,135,76.7 M135,76.7C135,76.7,135,76.7,135,76.7C135,76.7,135,76.7,135,76.7L135,76.7"/>
	<path class="st0" d="M54.1,76.7L54.1,76.7C54.1,76.7,54.1,76.7,54.1,76.7L54.1,76.7c-1.1,0.1-2.8,1.9-2.9,3c0,0,0,0,0,0.1
		c0,1.1,1.6,2.3,3.1,4.2c1.3-2,2.7-3.3,2.7-4.3c0-0.1,0-0.1,0-0.2c0,0,0,0,0,0c0,0,0,0,0,0c-0.2-0.9-1.5-2.3-2.5-2.7c0,0,0,0,0,0
		c0,0,0,0,0,0c0,0,0,0,0,0c0,0,0,0,0,0C54.4,76.7,54.3,76.7,54.1,76.7C54.2,76.7,54.2,76.7,54.1,76.7C54.1,76.7,54.1,76.7,54.1,76.7
		"/>
	<path class="st1" d="M57,79.5C57,79.5,57,79.5,57,79.5c0,0.1,0,0.1,0,0.2C57.1,79.6,57.1,79.5,57,79.5C57,79.5,57,79.5,57,79.5
		 M54.6,76.8c1,0.4,2.3,1.7,2.5,2.7C56.9,78.5,55.6,77.2,54.6,76.8 M54.5,76.8C54.5,76.8,54.5,76.8,54.5,76.8
		C54.5,76.8,54.5,76.8,54.5,76.8 M54.5,76.8C54.5,76.8,54.5,76.8,54.5,76.8C54.5,76.8,54.5,76.8,54.5,76.8 M54.2,76.7
		C54.2,76.7,54.2,76.7,54.2,76.7C54.2,76.7,54.2,76.7,54.2,76.7 M54,76.7L54,76.7c-1.1,0.1-2.8,1.9-2.8,3c0,0,0,0,0,0.1
		c0,0,0,0,0-0.1C51.3,78.6,53,76.8,54,76.7L54,76.7 M54.1,76.7L54.1,76.7L54.1,76.7L54.1,76.7"/>
	<path class="st0" d="M94.7,29.1c1.4,2,3,3.3,2.9,4.3c-0.2,1.2-2,2.8-3.1,2.8c-1.1,0-2.8-1.8-2.9-3C91.4,32.2,93.1,31,94.7,29.1z"/>
	<rect x="19.5" y="64.7" width="149.5" height="56.7"/>
	<polygon class="st0" points="60.2,73.8 46.5,73.8 46.5,70.1 78.1,70.1 78.1,73.8 64.5,73.8 64.5,114.2 60.2,114.2 	"/>
	<path class="st0" d="M81.3,106.1l3.5-1.9c2.2,3.9,5.9,6.7,11.9,6.7c7.4,0,11.7-4.7,11.7-11.2c0-6.6-4.5-11-12.1-11
		c-2.5,0-4.3,0.5-5.5,0.8l-0.2-0.4l13-15.3H84.9v-3.8h26.4v0.3l-12.9,15c8.5,0.3,14.3,6.2,14.3,14.4c0,8.9-6.5,14.9-15.8,14.9
		C89.4,114.7,84,111.1,81.3,106.1z"/>
	<polygon class="st0" points="120.6,70.1 124.8,70.1 124.8,110.4 145.3,110.4 145.3,114.2 120.6,114.2 	"/>
</g>
</svg>
